<svg viewBox="0 0 380.598 380.598" xmlns="http://www.w3.org/2000/svg" fill="#000"><path d="M322.383 90.222h-2.84l.436-11.816c.368-10.004-3.254-19.481-10.201-26.689-6.946-7.207-16.284-11.176-26.294-11.176h-48.463V22.934C235.021 10.288 224.732 0 212.087 0h-43.576c-12.646 0-22.933 10.288-22.933 22.934V40.54H97.114c-10.01 0-19.348 3.97-26.294 11.177-6.947 7.207-10.569 16.686-10.2 26.688l.436 11.816h-2.841c-8.284 0-15 6.716-15 15s6.716 15 15 15h3.948l8.309 225.202a36.398 36.398 0 0036.494 35.174h166.667a36.398 36.398 0 0036.494-35.174l8.309-225.202h3.947c8.284 0 15-6.716 15-15s-6.716-14.999-15-14.999zM175.578 30h29.443v10.54h-29.443V30zM90.599 77.3c-.089-2.41 1.103-4.02 1.821-4.765s2.283-1.995 4.694-1.995h186.37a6.48 6.48 0 014.694 1.995 6.48 6.48 0 011.82 4.765l-.477 12.922H91.076L90.599 77.3zm189.548 267.018a6.499 6.499 0 01-6.515 6.279h-15.714V226.13c0-8.284-6.716-15-15-15s-15 6.716-15 15v124.468h-22.62V226.13c0-8.284-6.716-15-15-15s-15 6.716-15 15v124.468h-22.621V226.13c0-8.284-6.716-15-15-15s-15 6.716-15 15v124.468h-15.713a6.498 6.498 0 01-6.515-6.279l-8.268-224.097h196.232l-8.266 224.096z"/></svg>